<svg width="21" height="40" viewBox="0 0 21 40" fill="none" xmlns="http://www.w3.org/2000/svg">
<path d="M17.1815 39.9998C16.7546 40.0013 16.3328 39.9071 15.9471 39.7241C15.5614 39.5412 15.2215 39.2742 14.9526 38.9428L1.15008 21.8015C0.729774 21.2903 0.5 20.6491 0.5 19.9874C0.5 19.3257 0.729774 18.6845 1.15008 18.1733L15.4384 1.03205C15.9234 0.448631 16.6204 0.0817387 17.3761 0.0120889C18.1317 -0.0575609 18.8841 0.175737 19.4677 0.660658C20.0512 1.14558 20.4182 1.8424 20.4879 2.59784C20.5576 3.35327 20.3242 4.10543 19.8392 4.68885L7.06543 20.0017L19.4105 35.3145C19.76 35.7339 19.9819 36.2445 20.0502 36.786C20.1184 37.3275 20.0301 37.8773 19.7956 38.3702C19.5611 38.8631 19.1903 39.2785 18.727 39.5673C18.2638 39.8561 17.7274 40.0062 17.1815 39.9998Z" fill="#313131"/>
</svg>
